<svg width="21" height="26" viewBox="0 0 21 26" fill="none" xmlns="http://www.w3.org/2000/svg">
<path d="M19.5417 13.7089C19.5417 19.5422 15.4583 22.4589 10.605 24.1505C10.3509 24.2366 10.0748 24.2325 9.82333 24.1389C4.95833 22.4589 0.875 19.5422 0.875 13.7089V5.54219C0.875 5.23277 0.997917 4.93603 1.21671 4.71723C1.4355 4.49844 1.73225 4.37552 2.04167 4.37552C4.375 4.37552 7.29167 2.97552 9.32167 1.20219C9.56883 0.991023 9.88325 0.875 10.2083 0.875C10.5334 0.875 10.8478 0.991023 11.095 1.20219C13.1367 2.98719 16.0417 4.37552 18.375 4.37552C18.6844 4.37552 18.9812 4.49844 19.2 4.71723C19.4188 4.93603 19.5417 5.23277 19.5417 5.54219V13.7089Z" stroke="white" stroke-width="1.75" stroke-linecap="round" stroke-linejoin="round"/>
</svg>
