<svg width="28" height="28" viewBox="0 0 28 28" fill="none" xmlns="http://www.w3.org/2000/svg">
<path d="M2.33337 11.0833C2.3334 9.78507 2.72723 8.51735 3.46286 7.44761C4.19849 6.37787 5.24131 5.55644 6.45358 5.09181C7.66586 4.62717 8.99056 4.54119 10.2527 4.84522C11.5149 5.14926 12.6551 5.829 13.5229 6.79467C13.584 6.86002 13.6579 6.91212 13.74 6.94774C13.822 6.98336 13.9106 7.00174 14 7.00174C14.0895 7.00174 14.178 6.98336 14.2601 6.94774C14.3422 6.91212 14.4161 6.86002 14.4772 6.79467C15.3422 5.82272 16.4827 5.13727 17.7469 4.82954C19.0112 4.52181 20.3391 4.60641 21.5541 5.07207C22.769 5.53773 23.8133 6.36237 24.548 7.43623C25.2827 8.51008 25.6729 9.78223 25.6667 11.0833C25.6667 13.755 23.9167 15.75 22.1667 17.5L15.7594 23.6985C15.542 23.9482 15.274 24.1487 14.9731 24.2869C14.6722 24.425 14.3454 24.4975 14.0144 24.4996C13.6833 24.5017 13.3556 24.4333 13.053 24.299C12.7505 24.1647 12.4799 23.9676 12.2594 23.7207L5.83337 17.5C4.08337 15.75 2.33337 13.7667 2.33337 11.0833Z" stroke="white" stroke-width="1.75" stroke-linecap="round" stroke-linejoin="round"/>
</svg>
