<svg width="28" height="28" viewBox="0 0 28 28" fill="none" xmlns="http://www.w3.org/2000/svg">
<path d="M12.8333 23.3334C10.7847 23.3396 8.80856 22.5756 7.29687 21.193C5.78518 19.8104 4.84833 17.9102 4.67213 15.8692C4.49592 13.8282 5.09324 11.7955 6.34561 10.1742C7.59798 8.55302 9.41392 7.46169 11.4333 7.11671C18.0833 5.83337 19.8333 5.22671 22.1666 2.33337C23.3333 4.66671 24.4999 7.21004 24.4999 11.6667C24.4999 18.0834 18.9233 23.3334 12.8333 23.3334Z" stroke="white" stroke-width="1.75" stroke-linecap="round" stroke-linejoin="round"/>
<path d="M2.33325 24.5C2.33325 21 4.49159 18.2467 8.25992 17.5C11.0833 16.94 13.9999 15.1667 15.1666 14" stroke="white" stroke-width="1.75" stroke-linecap="round" stroke-linejoin="round"/>
</svg>
