<svg width="28" height="28" viewBox="0 0 28 28" fill="none" xmlns="http://www.w3.org/2000/svg">
<path d="M16.3333 21V6.99996C16.3333 6.38112 16.0874 5.78763 15.6498 5.35004C15.2122 4.91246 14.6188 4.66663 13.9999 4.66663H4.66659C4.04775 4.66663 3.45425 4.91246 3.01667 5.35004C2.57908 5.78763 2.33325 6.38112 2.33325 6.99996V19.8333C2.33325 20.1427 2.45617 20.4395 2.67496 20.6583C2.89375 20.877 3.1905 21 3.49992 21H5.83325" stroke="white" stroke-width="1.75" stroke-linecap="round" stroke-linejoin="round"/>
<path d="M17.5 21H10.5" stroke="white" stroke-width="1.75" stroke-linecap="round" stroke-linejoin="round"/>
<path d="M22.1666 21H24.4999C24.8093 21 25.1061 20.8771 25.3249 20.6583C25.5437 20.4395 25.6666 20.1428 25.6666 19.8334V15.575C25.6661 15.3103 25.5756 15.0536 25.4099 14.847L21.3499 9.77204C21.2408 9.6354 21.1024 9.52504 20.9449 9.44911C20.7873 9.37318 20.6148 9.33362 20.4399 9.33337H16.3333" stroke="white" stroke-width="1.75" stroke-linecap="round" stroke-linejoin="round"/>
<path d="M19.8333 23.3333C21.122 23.3333 22.1667 22.2886 22.1667 21C22.1667 19.7113 21.122 18.6666 19.8333 18.6666C18.5447 18.6666 17.5 19.7113 17.5 21C17.5 22.2886 18.5447 23.3333 19.8333 23.3333Z" stroke="white" stroke-width="1.75" stroke-linecap="round" stroke-linejoin="round"/>
<path d="M8.16659 23.3333C9.45525 23.3333 10.4999 22.2886 10.4999 21C10.4999 19.7113 9.45525 18.6666 8.16659 18.6666C6.87792 18.6666 5.83325 19.7113 5.83325 21C5.83325 22.2886 6.87792 23.3333 8.16659 23.3333Z" stroke="white" stroke-width="1.75" stroke-linecap="round" stroke-linejoin="round"/>
</svg>
