<svg width="17" height="14" viewBox="0 0 17 14" fill="none" xmlns="http://www.w3.org/2000/svg">
<path d="M0.5625 4.69962C0.562515 3.86502 0.815695 3.05005 1.2886 2.36236C1.7615 1.67467 2.43189 1.14661 3.21121 0.847915C3.99053 0.54922 4.84212 0.493948 5.65351 0.689398C6.4649 0.884848 7.19792 1.32183 7.75575 1.94262C7.79504 1.98463 7.84254 2.01812 7.89531 2.04102C7.94807 2.06391 8.00498 2.07573 8.0625 2.07573C8.12002 2.07573 8.17693 2.06391 8.22969 2.04102C8.28246 2.01812 8.32996 1.98463 8.36925 1.94262C8.92533 1.31779 9.65852 0.877141 10.4712 0.679316C11.2839 0.481492 12.1376 0.535875 12.9187 0.835228C13.6997 1.13458 14.371 1.6647 14.8433 2.35504C15.3156 3.04538 15.5665 3.86319 15.5625 4.69962C15.5625 6.41712 14.4375 7.69962 13.3125 8.82462L9.1935 12.8094C9.05375 12.9699 8.88145 13.0988 8.68803 13.1876C8.49462 13.2764 8.28453 13.323 8.07172 13.3243C7.8589 13.3257 7.64824 13.2817 7.45372 13.1954C7.25919 13.1091 7.08527 12.9823 6.9435 12.8236L2.8125 8.82462C1.6875 7.69962 0.5625 6.42462 0.5625 4.69962Z" stroke="#364153" stroke-width="1.125" stroke-linecap="round" stroke-linejoin="round"/>
</svg>
