<svg width="18" height="18" viewBox="0 0 18 18" fill="none" xmlns="http://www.w3.org/2000/svg">
<path d="M12.75 1.5H5.25C3.17893 1.5 1.5 3.17893 1.5 5.25V12.75C1.5 14.8211 3.17893 16.5 5.25 16.5H12.75C14.8211 16.5 16.5 14.8211 16.5 12.75V5.25C16.5 3.17893 14.8211 1.5 12.75 1.5Z" stroke="#4A5565" stroke-width="1.125" stroke-linecap="round" stroke-linejoin="round"/>
<path d="M12 8.52724C12.0926 9.15142 11.986 9.7889 11.6953 10.349C11.4047 10.9091 10.9449 11.3633 10.3812 11.647C9.8176 11.9307 9.17886 12.0294 8.55586 11.9292C7.93287 11.8289 7.35734 11.5348 6.91115 11.0886C6.46496 10.6424 6.17082 10.0669 6.07058 9.4439C5.97033 8.8209 6.06907 8.18216 6.35277 7.61852C6.63647 7.05488 7.09066 6.59504 7.65076 6.30442C8.21086 6.01379 8.84834 5.90718 9.47252 5.99974C10.1092 6.09415 10.6987 6.39084 11.1538 6.84597C11.6089 7.3011 11.9056 7.89055 12 8.52724Z" stroke="#4A5565" stroke-width="1.125" stroke-linecap="round" stroke-linejoin="round"/>
<path d="M13.125 4.875H13.1325" stroke="#4A5565" stroke-width="1.125" stroke-linecap="round" stroke-linejoin="round"/>
</svg>
