<svg width="18" height="18" viewBox="0 0 18 18" fill="none" xmlns="http://www.w3.org/2000/svg">
<path d="M1.87488 12.75C1.35095 10.2774 1.35095 7.72255 1.87488 5.25C1.94372 4.99891 2.07674 4.77006 2.26084 4.58595C2.44494 4.40185 2.67379 4.26884 2.92488 4.2C6.94747 3.53359 11.0523 3.53359 15.0749 4.2C15.326 4.26884 15.5548 4.40185 15.7389 4.58595C15.923 4.77006 16.056 4.99891 16.1249 5.25C16.6488 7.72255 16.6488 10.2774 16.1249 12.75C16.056 13.0011 15.923 13.2299 15.7389 13.414C15.5548 13.5981 15.326 13.7312 15.0749 13.8C11.0523 14.4665 6.94746 14.4665 2.92488 13.8C2.67379 13.7312 2.44494 13.5981 2.26084 13.414C2.07674 13.2299 1.94372 13.0011 1.87488 12.75Z" stroke="#4A5565" stroke-width="1.125" stroke-linecap="round" stroke-linejoin="round"/>
<path d="M7.5 11.25L11.25 9L7.5 6.75V11.25Z" stroke="#4A5565" stroke-width="1.125" stroke-linecap="round" stroke-linejoin="round"/>
</svg>
